# xmcd
#
# Track frame offsets: 
#        150
#        31094
#        68731
#        91921
#        118874
#        142255
#        176147
#        210377
#        226123
#        238628
#
# Disc length: 3640 seconds
#
# Revision: 1
# Processed by: cddbd v1.5.2PL0 Copyright (c) Steve Scherf et al.
# Submitted via: ExactAudioCopy v0.99pb5
#
DISCID=840e360a
DTITLE=Various Artist - Disco Classics - Volume 3
DYEAR=2007
DGENRE=Disco
TTITLE0=Viola Wills - If You Could Read My Mind
TTITLE1=Vicki Sue Robinson - I'm Here and I'm Hot
TTITLE2=Celi Bee - Superman
TTITLE3=Ann-Margret - Love Rush
TTITLE4=Carol Hahn - Do Your Best
TTITLE5=Sister Power - Gimme Back My Love Affair
TTITLE6=Sabu - We're Gonna Rock
TTITLE7=Rice and Beans Orchestra - Disco Dancin'
TTITLE8=Magnifique - Magnifique
TTITLE9=Debbie Jacobs - Don't You Want My Love
EXTD=
EXTT0=
EXTT1=
EXTT2=
EXTT3=
EXTT4=
EXTT5=
EXTT6=
EXTT7=
EXTT8=
EXTT9=
PLAYORDER=
